<?xml version="1.0" encoding="UTF-8"?>
<svg version="1.1" xmlns="http://www.w3.org/2000/svg" width="32" height="32">
<path d="M0 0 C10.56 0 21.12 0 32 0 C32 10.56 32 21.12 32 32 C21.44 32 10.88 32 0 32 C0 21.44 0 10.88 0 0 Z " fill="#0C0C0C" transform="translate(0,0)"/>
<path d="M0 0 C0.99 0.33 1.98 0.66 3 1 C2.814375 1.639375 2.62875 2.27875 2.4375 2.9375 C2.293125 3.618125 2.14875 4.29875 2 5 C2.33 5.33 2.66 5.66 3 6 C3.07244053 8.01964199 3.08377188 10.04167124 3.0625 12.0625 C3.05347656 13.16722656 3.04445313 14.27195312 3.03515625 15.41015625 C3.02355469 16.26480469 3.01195313 17.11945312 3 18 C-3.21324498 18.73030908 -8.84098757 19.23180249 -15 18 C-15.05389087 16.04196493 -15.09274217 14.08351091 -15.125 12.125 C-15.14820313 11.03445312 -15.17140625 9.94390625 -15.1953125 8.8203125 C-15 6 -15 6 -13 4 C-11.906875 4.020625 -10.81375 4.04125 -9.6875 4.0625 C-5.47810687 3.99115435 -2.98703824 2.98703824 0 0 Z " fill="#838383" transform="translate(22,6)"/>
<path d="M0 0 C2.31 0.33 4.62 0.66 7 1 C5.68 3.31 4.36 5.62 3 8 C5.44480079 7.81171228 5.44480079 7.81171228 8 7 C9.36020151 5.03241727 9.36020151 5.03241727 10 3 C10.66 3 11.32 3 12 3 C12 2.34 12 1.68 12 1 C12.66 1 13.32 1 14 1 C14.33 4.63 14.66 8.26 15 12 C9.3110884 12.78769545 4.63643263 13.07931689 -1 12 C-0.67 8.04 -0.34 4.08 0 0 Z " fill="#5E5E5E" transform="translate(9,11)"/>
<path d="M0 0 C2.31 0.33 4.62 0.66 7 1 C5.68 3.31 4.36 5.62 3 8 C3.99 8 4.98 8 6 8 C6 8.66 6 9.32 6 10 C4.02 10 2.04 10 0 10 C0 6.7 0 3.4 0 0 Z " fill="#232323" transform="translate(9,11)"/>
<path d="M0 0 C0.66 0 1.32 0 2 0 C2 2.97 2 5.94 2 9 C-0.875 9.1875 -0.875 9.1875 -4 9 C-4.66 8.01 -5.32 7.02 -6 6 C-5.34 6 -4.68 6 -4 6 C-3.34 4.68 -2.68 3.36 -2 2 C-1.34 2 -0.68 2 0 2 C0 1.34 0 0.68 0 0 Z " fill="#272727" transform="translate(21,12)"/>
<path d="M0 0 C0.99 0.33 1.98 0.66 3 1 C1.75453595 4.73639216 0.36595047 5.18756513 -3 7 C-3.99 6.01 -4.98 5.02 -6 4 C-5.195625 3.525625 -4.39125 3.05125 -3.5625 2.5625 C-1.15246512 1.23099846 -1.15246512 1.23099846 0 0 Z " fill="#4C4C4C" transform="translate(22,6)"/>
</svg>
